HIERARCHY
ROOT Hips
{
	OFFSET 0.000000 88.474243 0.000000
	CHANNELS 6 Xposition Yposition Zposition Zrotation Yrotation Xrotation 
	JOINT Hips_Spine
	{
		OFFSET 0.000000 0.000000 0.000000
		CHANNELS 3 Zrotation Yrotation Xrotation
		JOINT Spine
		{
			OFFSET 0.005100 8.711998 -0.691000
			CHANNELS 3 Zrotation Yrotation Xrotation
			JOINT Spine1
			{
				OFFSET -0.009200 8.660301 -1.275000
				CHANNELS 3 Zrotation Yrotation Xrotation
				JOINT Spine2
				{
					OFFSET 0.006300 9.852501 -1.857000
					CHANNELS 3 Zrotation Yrotation Xrotation
					JOINT Spine2_Neck
					{
						OFFSET 0.000000 0.000000 0.000000
						CHANNELS 3 Zrotation Yrotation Xrotation
						JOINT Neck
						{
							OFFSET 0.016300 11.420799 -0.263300
							CHANNELS 3 Zrotation Yrotation Xrotation
							End Site #name: Head
							{
								OFFSET -0.019200 9.262405 2.362500
							}
						}
					}
					JOINT Spine2_LeftShoulder
					{
						OFFSET 0.000000 0.000000 0.000000
						CHANNELS 3 Zrotation Yrotation Xrotation
						JOINT LeftShoulder
						{
							OFFSET 5.616900 6.732201 -0.345700
							CHANNELS 3 Zrotation Yrotation Xrotation
							JOINT LeftArm
							{
								OFFSET 10.664888 -0.183372 -2.440700
								CHANNELS 3 Zrotation Yrotation Xrotation
								JOINT LeftForeArm
								{
									OFFSET 27.459126 0.000000 0.000000
									CHANNELS 3 Zrotation Yrotation Xrotation
									End Site #name: LeftHand
									{
										OFFSET 21.306858 0.000000 0.000000
									}
								}
							}
						}
					}
					JOINT Spine2_RightShoulder
					{
						OFFSET 0.000000 0.000000 0.000000
						CHANNELS 3 Zrotation Yrotation Xrotation
						JOINT RightShoulder
						{
							OFFSET -5.580300 6.737503 -0.344400
							CHANNELS 3 Zrotation Yrotation Xrotation
							JOINT RightArm
							{
								OFFSET -10.679335 -0.188484 -2.383900
								CHANNELS 3 Zrotation Yrotation Xrotation
								JOINT RightForeArm
								{
									OFFSET -27.503529 0.000000 0.000000
									CHANNELS 3 Zrotation Yrotation Xrotation
									End Site #name: RightHand
									{
										OFFSET -21.306808 0.000000 0.000000
									}
								}
							}
						}
					}
				}
			}
		}
	}
	JOINT Hips_LeftUpLeg
	{
		OFFSET 0.000000 0.000000 0.000000
		CHANNELS 3 Zrotation Yrotation Xrotation
		JOINT LeftUpLeg
		{
			OFFSET 6.857700 -6.739601 0.312100
			CHANNELS 3 Zrotation Yrotation Xrotation
			JOINT LeftLeg
			{
				OFFSET -0.367590 -34.731552 -4.572400
				CHANNELS 3 Zrotation Yrotation Xrotation
				End Site #name: LeftFoot
				{
					OFFSET 0.367590 -34.656704 -6.067400
				}
			}
		}
	}
	JOINT Hips_RightUpLeg
	{
		OFFSET 0.000000 0.000000 0.000000
		CHANNELS 3 Zrotation Yrotation Xrotation
		JOINT RightUpLeg
		{
			OFFSET -6.876100 -6.733299 0.301000
			CHANNELS 3 Zrotation Yrotation Xrotation
			JOINT RightLeg
			{
				OFFSET 0.347353 -34.795158 -4.515900
				CHANNELS 3 Zrotation Yrotation Xrotation
				End Site #name: RightFoot
				{
					OFFSET -0.347353 -34.589367 -6.070300
				}
			}
		}
	}
}
MOTION
Frames: 11
Frame Time: 0.041667
36.642849 -6.242913 -52.724827 179.322205 46.435624 -148.291105 0.000000 -0.000000 -0.000000 20.279425 -5.650197 -20.655365 11.537259 -11.074826 -9.634085 0.000000 0.000000 0.000000 2.459935 -9.756125 -4.185463 46.899912 -8.870366 71.130263 -3.235096 -1.966252 -6.070463 -78.837970 -3.801059 27.051560 93.584166 -4.586338 -176.957883 -26.043149 -56.900748 51.271974 -0.748012 2.833832 9.234710 -97.376394 18.889898 -65.347796 148.623406 64.955824 50.678245 147.647576 61.962765 159.562947 -0.000000 -0.000000 -0.000000 69.917677 60.981772 53.077299 15.535335 -8.166276 -28.548571 -0.000000 0.000000 -0.000000 -141.806134 39.853724 -166.467302 -11.583927 8.709370 59.366918 
38.311687 -6.501804 -53.777607 -179.542291 49.865017 -148.209041 0.000000 -0.000000 -0.000000 21.730390 -5.666713 -23.711648 11.649783 -10.768586 -10.427286 0.000000 0.000000 0.000000 2.642646 -10.500381 -4.395370 47.739515 -9.550136 73.732344 -3.722302 -1.731079 -4.843745 -80.133534 -4.088172 26.725388 92.674116 -8.049911 -178.114053 -22.253537 -54.535386 48.340159 -1.211332 3.039704 9.399836 -98.655380 18.393615 -65.449076 151.274732 64.421107 52.141772 143.207683 64.560517 155.638843 -0.000000 -0.000000 -0.000000 66.470440 62.727146 48.010776 15.456852 -7.971951 -26.592838 -0.000000 0.000000 -0.000000 -144.835787 39.546150 -167.939786 -11.688603 9.544596 58.217060 
40.004845 -6.733017 -54.636395 -178.429965 53.825702 -148.243492 0.000000 -0.000000 -0.000000 23.274301 -5.627921 -26.528600 11.744063 -10.420572 -11.585809 0.000000 0.000000 0.000000 3.001478 -11.196549 -4.838990 48.308648 -10.517370 76.462207 -4.058524 -1.525104 -3.645863 -81.840931 -4.060058 26.057663 92.326656 -11.009664 -178.931973 -19.222746 -52.242676 46.092258 -1.683804 3.160243 9.609885 -100.080062 17.947986 -65.555876 154.834510 63.815092 53.450550 139.867568 66.011302 152.980077 0.000000 -0.000000 -0.000000 61.664332 63.656970 41.644416 15.371250 -7.737863 -24.862886 -0.000000 0.000000 -0.000000 -147.155416 38.980901 -169.043256 -11.793837 10.367930 57.201882 
41.720806 -6.952280 -55.354473 -177.120093 58.175495 -148.322761 0.000000 -0.000000 -0.000000 24.997891 -5.653921 -28.861677 11.900648 -10.045256 -12.969195 0.000000 0.000000 0.000000 3.261563 -11.484699 -4.888493 48.503959 -11.481847 79.355967 -4.458105 -1.278944 -2.603130 -83.683631 -3.831410 25.392198 93.304893 -12.710089 179.447192 -17.028523 -50.244679 44.617273 -2.099996 3.238003 9.774023 -101.629468 17.558519 -65.740521 158.923385 62.271712 54.788244 138.243647 66.312177 152.169342 0.000000 -0.000000 -0.000000 57.378930 64.142982 35.732850 14.901951 -7.090176 -23.064406 -0.000000 0.000000 -0.000000 -148.954348 38.403504 -169.842736 -11.893181 11.066629 56.471453 
43.452988 -7.176066 -55.950005 -175.853094 62.391463 -148.538228 0.000000 -0.000000 -0.000000 26.029783 -6.351729 -28.846404 12.095581 -9.659714 -14.436741 0.000000 0.000000 0.000000 3.513892 -11.628248 -4.863361 48.568049 -12.198272 82.370547 -4.875040 -0.986415 -1.626785 -85.396295 -3.760977 24.722389 95.953780 -13.796894 177.063589 -15.332591 -48.444212 43.414654 -2.487986 3.304253 9.986256 -103.291260 17.191834 -66.010102 163.603707 59.940801 55.931132 138.163431 65.612022 152.996032 0.000000 -0.000000 -0.000000 53.670726 64.277609 30.555072 14.204739 -6.143525 -21.385331 -0.000000 0.000000 -0.000000 -150.461984 37.870664 -170.428176 -12.008870 11.559780 56.195573 
45.207264 -7.429339 -56.420315 -174.798624 65.504764 -148.824698 0.000000 -0.000000 -0.000000 26.708445 -7.229151 -29.062610 12.351269 -9.373444 -15.868798 0.000000 0.000000 0.000000 3.756516 -11.762443 -4.911674 48.399546 -12.699021 85.574905 -5.254786 -0.722859 -0.920467 -87.225493 -3.967481 24.394948 99.462761 -14.788622 175.978409 -14.182741 -46.903234 42.701053 -2.835137 3.378923 10.171637 -105.146717 16.958574 -66.421317 169.240315 57.118005 57.962496 139.205848 64.283182 154.816489 0.000000 -0.000000 -0.000000 50.714931 64.105404 26.218971 12.911435 -4.832164 -19.902551 -0.000000 0.000000 -0.000000 -151.385254 37.112541 -170.829391 -12.156674 11.785775 56.600709 
46.988255 -7.706017 -56.832111 -174.341038 67.417661 -149.474210 0.000000 -0.000000 -0.000000 27.607783 -8.077441 -29.647210 12.526977 -9.154528 -17.159404 0.000000 0.000000 0.000000 3.978487 -11.815007 -5.033831 48.197388 -12.822083 88.701617 -5.513094 -0.484979 -0.566112 -88.908356 -4.266275 24.188239 102.619669 -15.696415 175.225696 -13.921112 -46.133292 42.932000 -3.109855 3.433792 10.372640 -107.050988 16.850380 -66.926540 174.739287 53.957356 59.851932 141.054065 62.452506 157.323941 0.000000 -0.000000 -0.000000 49.227506 63.831360 23.106076 11.037010 -3.505798 -18.334172 -0.000000 0.000000 -0.000000 -151.813579 36.391066 -171.144445 -12.385517 11.815027 57.403383 
48.803802 -8.033807 -57.221691 -174.097146 68.617269 -150.045230 0.000000 -0.000000 -0.000000 28.597832 -8.885782 -30.055163 12.570605 -8.969718 -18.280937 0.000000 0.000000 0.000000 4.107631 -11.762199 -5.168518 48.046658 -12.463622 91.491059 -5.686625 -0.280845 -0.352370 -90.240320 -4.610120 24.170866 104.463193 -16.430331 174.787731 -14.358918 -46.094196 44.070401 -3.324708 3.593088 10.598035 -108.866701 16.810122 -67.405874 179.903382 50.338997 61.438498 144.182573 59.721168 160.884320 0.000000 -0.000000 -0.000000 48.608353 62.346679 21.444799 8.632188 -2.569056 -17.085386 -0.000000 0.000000 -0.000000 -151.587060 35.817921 -171.155522 -12.606055 11.716662 58.373740 
50.655342 -8.450093 -57.638432 -173.627084 69.506473 -150.018196 0.000000 -0.000000 -0.000000 29.356584 -9.566918 -30.341930 12.567797 -8.778412 -19.103066 0.000000 0.000000 0.000000 4.148131 -11.580951 -5.291250 47.983074 -11.731372 93.609732 -5.773657 -0.105178 -0.193315 -90.968261 -5.093188 24.161006 104.285673 -16.442124 175.122905 -16.119757 -47.537852 46.326686 -3.465230 3.890451 10.678225 -110.362792 16.795521 -67.695083 -175.789823 46.456320 62.575892 147.185410 56.908853 164.141753 0.000000 -0.000000 -0.000000 48.569288 60.653771 20.204507 6.521322 -2.079805 -15.204781 -0.000000 0.000000 -0.000000 -150.841967 35.509088 -170.916858 -12.872731 11.484377 59.404059 
52.523640 -8.926656 -58.032738 -174.126682 69.776601 -150.744548 0.000000 -0.000000 -0.000000 29.730058 -10.109616 -30.566831 12.465678 -8.595816 -19.565885 0.000000 0.000000 0.000000 4.151425 -11.337862 -5.413460 48.032671 -10.704333 94.830716 -5.775844 0.047237 -0.030849 -90.990502 -5.439067 23.946300 104.132841 -15.929221 176.014066 -18.604867 -49.835286 48.895502 -3.527597 4.243364 10.573813 -111.441102 16.998634 -68.050354 -173.083078 42.544594 62.650092 150.151084 53.861870 167.209285 0.000000 -0.000000 -0.000000 48.377022 58.697735 18.964935 4.802834 -1.863264 -15.065887 -0.000000 0.000000 -0.000000 -149.459692 35.603821 -170.325487 -13.160263 11.081593 60.595579 
54.374870 -9.425910 -58.280247 -175.597655 70.073363 -152.207641 0.000000 -0.000000 -0.000000 29.575681 -10.560690 -30.499981 12.281527 -8.463926 -19.609221 0.000000 0.000000 0.000000 4.101857 -11.033471 -5.480143 48.141041 -9.425975 95.148730 -5.735191 0.171190 0.192614 -90.389627 -5.497018 23.326958 103.981834 -15.254021 177.667400 -21.119821 -52.366781 51.401749 -3.479447 4.554537 10.452750 -112.129356 17.315808 -68.477622 -171.393867 38.834166 62.352107 152.689679 51.107196 169.948812 0.000000 -0.000000 -0.000000 48.211057 55.983562 17.744519 3.305100 -1.958463 -17.244030 -0.000000 0.000000 -0.000000 -147.715625 36.125347 -169.515083 -13.475723 10.582638 61.938536 
